<?xml version="1.0" standalone="no"?>
<!DOCTYPE svg PUBLIC "-//W3C//DTD SVG 1.1//EN" "http://www.w3.org/Graphics/SVG/1.1/DTD/svg11.dtd" >
<!--
2013-9-30: Created.
-->
<svg>
<metadata>
Created by iconfont
</metadata>
<defs>

<font id="iconfont" horiz-adv-x="1024" >
  <font-face
    font-family="iconfont"
    font-weight="500"
    font-stretch="normal"
    units-per-em="1024"
    ascent="896"
    descent="-128"
  />
    <missing-glyph />
    
    <glyph glyph-name="phpkaifa" unicode="&#58908;" d="M728.28416 565.23776l-22.528 0-9.25184-56.18176 21.04832 0c0 0 25.61024-0.78848 26.81856 36.39808C745.5744 566.81984 728.28416 565.23776 728.28416 565.23776zM920.58112 565.23776l-22.52288 0-9.25184-56.18176 21.04832 0c0 0 25.61024-0.78848 26.81856 36.39808C937.8816 566.81984 920.58112 565.23776 920.58112 565.23776zM877.37856 696.00768l-237.83424 40.54528c0 0 10.63936-39.47008 10.69056-81.78176l0.32768-220.34432c0 0-3.26144-51.08224-96.04096-53.17632-92.77952-2.0992-99.28192 57.78432-96.03072 59.56608l-0.33792 89.30816c0 0 1.23904 12.47744 14.00832 13.29664 12.7744 0.82432 14.01856-13.99296 14.01856-13.99296l0.80896-88.72448c0 0 5.44256-33.93024 68.8896-33.76128 63.45216 0.17408 65.99168 31.45216 65.99168 31.45216l0.6912 245.69344c0 0 3.5584 81.70496-89.5488 103.61856 0 0-11.15136 6.11328-43.93984 6.10304l-161.72032 0.1024c0 0-141.37344-4.25472-163.12832-173.35296 0 0-3.90144-30.63296-3.94752-52.4544-0.04096-21.82144-0.31744-381.39392-0.31744-381.39392s-1.52576-25.18016-30.31552-31.67232c0 0-31.91808-4.22912-39.56224 31.82592l-0.70144 104.28928c0 0-3.16416 39.5008-44.27776 42.93632 0 0-38.11328 0.03072-44.72832-42.95168l1.408-111.12448c0 0 7.62368-67.56352 74.83904-97.60256 67.21024-30.03904 124.71296 8.07936 133.07904 14.94016 8.3712 6.87104 41.98912 31.52896 49.12128 79.91296 0 0 1.85856 2.67264 1.85856 43.61216l0.52224 66.72384c0 0 6.67136 34.00192 43.22816 35.14368s43.2384-35.16928 43.2384-35.16928l0-248.1664c0 0 7.8336-32.88064 37.76-26.33216l172.02176 14.97088c0 0 25.16992 5.2992 25.16992 29.81888s0 173.57312 0 173.57312 5.0688 15.65696 20.20864 15.65696c15.13472 0 158.98624-0.22016 158.98624-0.22016s11.90912-1.45408 17.2544-15.4368c5.3504-13.9776-0.54784 0-0.54784 0l0.77312-164.53632c0 0 2.31424-28.78976 38.51264-27.8016l143.09376-19.63008 32.39936-4.43904c0 0 29.72672 3.40992 30.31552 30.2592L1023.616 539.42784C1023.62624 539.42784 1018.0864 665.62048 877.37856 696.00768zM330.83392 647.56224l-12.1088-13.90592c-14.09024 12.3136-30.0288 2.37568-30.0288 2.37568-16.83456-10.5472-8.1152-29.64992-8.1152-29.64992l-13.90592-4.3776c-7.79776-1.9712-13.45024 3.3792-13.45024 3.3792-5.91872 22.25152 8.93952 42.17856 8.93952 42.17856 24.18176 26.22464 57.98912 15.61088 57.98912 15.61088C336.82432 657.94048 330.83392 647.56224 330.83392 647.56224zM716.48256 488.1664l-22.79936 0.20992-6.43584-35.34336-24.40192 0 21.9904 132.9408c0 0 31.24736-0.47104 51.75808 0 20.51584 0.47616 40.69888-16.63488 31.24736-55.39328C756.57728 484.36736 716.48256 488.1664 716.48256 488.1664zM826.17856 488.1664c0 0 5.85216 30.89408 8.4224 52.34176 1.05472 8.832 5.6576 23.7824-6.53312 23.81312-10.21952 0.03072-25.49248 0.12288-25.49248 0.12288l-12.8768-76.28288-24.13568 0 22.52288 133.57568 24.71424 0-6.21056-35.75808 25.48736 0c0 0 33.792 3.15392 29.76256-29.76256-4.0192-32.9216-11.53024-68.05504-11.53024-68.05504L826.17856 488.16128zM960.14336 530.58048c-11.26912-46.21824-51.36384-42.4192-51.36384-42.4192l-22.79424 0.20992-6.43584-35.34336-24.40704 0 21.99552 132.9408c0 0 31.24224-0.47104 51.75808 0C949.41184 586.44992 969.58464 569.33888 960.14336 530.58048z"  horiz-adv-x="1024" />

    
    <glyph glyph-name="jiaban" unicode="&#58880;" d="M233.037 536.36c1.893 99.977 17.642 172.007 148.574 172.007 131.147 0 146.732-72.266 148.584-172.488 19.596-3.807 31.426-21.326 27.414-42.365l-5.884-30.914c-2.292-12.065-13.037-21.837-24.887-23.423-8.309-60.467-30.975-110.895-67.988-139.528v-32.459l148.113-41.955c25.235-7.163 48.382-34.168 51.718-60.375l7.327-57.725c3.326-26.207-15.35-47.461-41.556-47.461h-486.233c-26.278 0-44.882 21.223-41.556 47.461l7.327 57.725c3.326 26.207 26.606 53.212 51.769 60.232l148.052 41.341v33.646c-36.645 28.653-59.116 78.794-67.405 138.873-13.047 0.092-25.583 10.52-28.069 23.649l-5.884 30.914c-4.206 22.144 9.118 40.39 30.587 42.846zM682.738 628.979c-39.902-0.023-77.552-9.638-110.778-26.664 3.331-12.56 4.416-25.576 4.968-37.753 22.042-18.696 33.309-48.576 27.373-79.91l-5.894-30.945c-4.254-21.053-16.615-38.638-33.612-49.696-4.066-39.874-19.763-76.692-41.437-105.713l96.549-27.363c43.265-12.28 80.196-55.258 85.906-100.13l3.837-30.239c122.623 13.426 218.066 117.24 218.066 243.434 0 135.301-109.678 244.979-244.979 244.979zM820.813 319.777h-166.287v211.691h59.352v-152.298h106.935v-59.352z"  horiz-adv-x="1024" />

    
    <glyph glyph-name="vuejs" unicode="&#58881;" d="M634.334 800.517l-124.665-256.319-122.334 256.319h-186.996l309.33-553.415 313.99 553.415zM509.087 247.10299999999995l308.748 553.415h168.938l-477.684-833.036-471.859 833.036h166.607l305.252-553.415z"  horiz-adv-x="1024" />

    
    <glyph glyph-name="CSS" unicode="&#59141;" d="M512 384zM128.3 831.7l69.8-805.8 313.4-89.5L825.8 26l69.9 805.7H128.3z m580.9-669.3l-197.1-56.2-196.8 56.5L301.9 318h96.4l6.9-79.1 107.1-30.3 0.3-0.5h0.1l106.9 29.7L630.7 366H406.1l-8 99.9h241.1l8.8 101.9H280.2l-8 97.9H753l-43.8-503.3z"  horiz-adv-x="1024" />

    
    <glyph glyph-name="jquery" unicode="&#59044;" d="M65.44 645.376c-90.592-130.144-79.36-299.392-10.112-437.6 1.568-3.36 3.328-6.56 5.024-9.76 0.992-2.208 2.08-4.256 3.296-6.368 0.544-1.184 1.312-2.432 2.016-3.552 1.12-2.208 2.304-4.352 3.456-6.496l6.688-11.296c1.248-2.08 2.432-4.128 3.84-6.24 2.336-4 5.12-7.968 7.552-12 1.12-1.664 2.144-3.328 3.36-4.992 4.736-7.424 9.088-13.6 13.696-19.584l-0.48 0.64c3.328-4.576 6.656-8.992 10.24-13.44 1.152-1.632 2.432-3.232 3.616-4.864l9.44-11.488c1.152-1.312 2.304-2.848 3.552-4.224 4.192-5.024 8.608-9.952 13.056-14.88 0-0.096 0.128-0.16 0.224-0.288 5.504-6.944 11.456-13.088 17.92-18.624l0.192-0.16c3.424-3.488 6.816-7.008 10.464-10.4l4.32-4.128c4.736-4.448 9.472-8.864 14.464-13.152 0.096 0 0.128-0.096 0.224-0.128l2.432-2.144c4.352-3.808 8.736-7.584 13.216-11.104l5.344-4.48c3.616-2.912 7.392-5.664 11.104-8.544l5.792-4.448c3.968-2.976 8.192-5.92 12.256-8.832 1.504-1.056 2.976-2.144 4.512-3.104l1.248-0.992 12-7.904 5.12-3.424c6.272-4 12.512-7.808 18.688-11.552 1.792-0.896 3.584-1.888 5.248-2.912 4.608-2.656 9.376-5.344 14.048-7.808 2.56-1.44 5.216-2.688 7.84-4 3.2-1.792 6.528-3.552 9.952-5.344a12.384 12.384 0 0 0 2.464-1.024l-0.064 0.032c1.408-0.64 2.72-1.312 4.096-2.016 5.12-2.56 10.464-4.992 16-7.424 1.024-0.416 2.144-0.864 3.232-1.44 6.144-2.688 12.288-5.248 18.656-7.776 1.44-0.416 2.976-1.152 4.48-1.696 5.76-2.176 11.68-4.384 17.536-6.496l2.144-0.768c6.528-2.208 12.96-4.352 19.584-6.4 1.536-0.416 3.104-0.992 4.736-1.408 6.784-2.048 13.344-4.48 20.192-5.792 437.76-79.776 564.992 263.2 564.992 263.2-106.88-139.168-296.544-175.872-476.16-135.04-6.656 1.536-13.312 3.68-20 5.632a468.48 468.48 0 0 0-28.224 8.96l4.032-1.248-2.656 1.024c-5.792 1.952-11.392 4.128-17.056 6.304a55.616 55.616 0 0 1-4.224 1.6l-0.48 0.128c-6.272 2.528-12.384 5.12-18.432 7.808-1.312 0.416-2.432 1.024-3.744 1.536a529.28 529.28 0 0 0-21.28 9.856l5.888-2.592c-1.568 0.672-2.976 1.408-4.512 2.208a320.704 320.704 0 0 0-11.936 6.048 135.2 135.2 0 0 0-8.832 4.544l0.864-0.448c-4.832 2.56-9.632 5.344-14.464 7.968-1.44 1.024-3.104 1.888-4.768 2.816a573.696 573.696 0 0 0-21.376 13.088l2.688-1.6a93.6 93.6 0 0 0-5.28 3.552l0.256-0.192a245.472 245.472 0 0 0-14.08 9.312l0.768-0.544c-1.504 0.992-2.848 2.048-4.384 3.104-5.44 3.776-9.536 6.752-13.568 9.792l1.024-0.736c-1.792 1.44-3.712 2.816-5.632 4.256-3.744 2.944-7.552 5.76-11.296 8.864l-5.024 4c-5.568 4.48-10.208 8.416-14.752 12.416l0.512-0.416A11.392 11.392 0 0 1 280.672 160l-0.032 0.032-14.816 13.472-4.256 4c-3.488 3.552-7.072 6.944-10.656 10.464l-4.128 4.256a394.56 394.56 0 0 0-12.928 13.472l-0.256 0.288-0.64 0.672a761.216 761.216 0 0 0-13.344 15.104c-1.152 1.312-2.208 2.72-3.424 4.128l-9.632 11.808a654.816 654.816 0 0 0-12.8 16.704l-1.728 2.4C92.416 392.832 56.352 580.544 136.096 734.528zM346.496 754.976c-65.664-94.24-61.952-220.288-10.848-319.968 9.472-18.688 19.072-34.496 29.696-49.504l-0.8 1.216c9.824-14.08 20.64-30.72 33.792-42.08a284.8 284.8 0 0 1 14.688-15.328l3.84-3.84c4.864-4.704 9.856-9.312 14.944-13.856l0.64-0.544c5.12-4.512 10.88-9.28 16.768-13.92l0.896-0.672c1.44-0.992 2.688-2.144 4.096-3.104 5.984-4.608 12-9.056 18.208-13.44l0.64-0.384c2.656-1.92 5.472-3.68 8.448-5.536 1.184-0.768 2.56-1.792 3.84-2.56 4.512-2.912 8.96-5.632 13.536-8.416 0.736-0.288 1.376-0.672 2.048-0.992 3.84-2.336 8.032-4.608 12.032-6.688 1.408-0.864 2.784-1.504 4.224-2.304 2.848-1.408 5.664-2.912 8.416-4.352l1.376-0.608c5.76-2.816 11.648-5.472 17.408-8.096a448.192 448.192 0 0 1 18.24-7.488c2.144-0.736 4.128-1.568 6.144-2.208 4.352-1.632 8.928-3.104 13.216-4.608l5.984-1.92c6.24-1.92 12.544-4.448 19.104-5.504 337.92-56.032 416.16 204.256 416.16 204.256-70.432-101.376-206.752-149.664-352.032-111.968a315.2 315.2 0 0 0-21.536 6.24l2.432-0.704c-2.048 0.544-3.84 1.184-5.792 1.792-4.448 1.536-8.992 3.04-13.312 4.64l-6.144 2.304c-4.768 1.92-9.632 3.712-14.304 5.76-1.44 0.64-2.784 1.056-3.872 1.696-5.984 2.688-12 5.344-17.792 8.192l-8.8 4.576-5.088 2.56c-3.936 2.048-7.552 4.192-11.296 6.4a30.464 30.464 0 0 0-2.752 1.504l0.096-0.064c-4.512 2.816-9.216 5.536-13.536 8.448-1.44 0.8-2.784 1.792-4.128 2.656l-8.864 5.792c-6.144 4.256-12.16 8.864-18.208 13.312-1.376 1.248-2.688 2.272-4 3.36-63.872 50.208-114.272 118.88-138.144 196.608-25.184 80.8-19.616 171.424 23.84 244.992zM582.816 836.96c-38.752-56.832-42.464-127.392-15.776-190.08 28.32-66.56 86.272-118.816 153.76-143.584 2.784-1.056 5.472-1.952 8.32-2.976l3.744-1.152c3.936-1.248 7.904-2.688 11.936-3.584 186.72-36 237.216 95.872 250.848 115.232-44.448-63.84-119.008-79.136-210.432-56.928a202.144 202.144 0 0 0-23.424 7.296l1.408-0.48a262.4 262.4 0 0 0-27.936 11.552l1.6-0.704a278.272 278.272 0 0 0-46.784 28.672l0.672-0.512c-81.92 62.048-132.64 180.48-79.232 276.96z"  horiz-adv-x="1024" />

    
    <glyph glyph-name="-java-script" unicode="&#58971;" d="M977.068 887.466C972.8 891.734 968.534 896 960.002 896H64c-4.266 0-12.798-4.266-17.066-8.534-4.268-4.268-4.266-8.534-4.266-17.066l85.334-853.334c0-8.534 8.534-17.066 12.798-17.066l384-128h17.068L883.2 0c8.534 4.266 12.798 8.534 12.798 17.066L981.332 870.4c0.004 4.264 0.004 12.8-4.264 17.066zM512.002 123.732c0-4.266-4.268-12.8-8.534-17.066s-8.786-4.832-13.05-4.832l-4.014 0.566-149.334 42.666c-8.534 4.266-12.798 8.534-17.066 17.066L298.67 268.8c-4.266 12.798 4.266 21.334 17.066 25.6 12.798 4.266 21.334-4.266 25.602-17.066l17.066-93.866 110.934-29.868V635.732H234.668c-12.798 0-21.334 8.534-21.334 21.334 0 12.798 8.534 21.334 21.334 21.334h256c12.798 0 21.334-8.534 21.334-21.334v-533.334zM810.668 652.8l-21.334-85.334c-4.266-12.798-12.964-19.118-25.6-17.066-13.316 2.16-18.416 12.87-17.066 25.602 1.608 15.188 12.798 59.732 12.798 59.732h-166.4V422.4H742.4c4.266 0 12.798-4.266 17.066-8.534 4.266-4.266 4.266-12.798 4.266-17.066l-42.666-234.666c0-8.534-8.534-12.798-12.798-17.066l-128-42.666c-4.266 0-19.768-5.9-29.868 12.798-4.266 12.798 4.266 21.334 12.798 25.602l115.2 38.4 34.134 196.268h-145.068c-12.798 0-21.334 8.534-21.334 21.334v256c0 12.798 8.534 21.334 21.334 21.334h213.334c8.534 0 14.374-1.824 19.95-4.134 11.83-4.902 9.92-12.938 9.92-17.204z"  horiz-adv-x="1024" />

    
    <glyph glyph-name="copyright" unicode="&#59262;" d="M512 832C264.6 832 64 631.4 64 384s200.6-448 448-448 448 200.6 448 448S759.4 832 512 832z m0-820c-205.4 0-372 166.6-372 372s166.6 372 372 372 372-166.6 372-372-166.6-372-372-372zM517.6 544.7c53 0 89-33.8 93-83.4 0.3-4.2 3.8-7.4 8-7.4h56.7c2.6 0 4.7 2.1 4.7 4.7 0 86.7-68.4 147.4-162.7 147.4C407.4 606 344 531.8 344 409.2v-52.3C344 235.2 407.4 162 517.3 162c94 0 162.7 58.8 162.7 141.4 0 2.6-2.1 4.7-4.7 4.7h-56.8c-4.2 0-7.6-3.2-8-7.3-4.2-46.1-40.1-77.8-93-77.8-65.3 0-102.1 47.9-102.1 133.6v52.6c0.1 87 37 135.5 102.2 135.5z"  horiz-adv-x="1024" />

    
    <glyph glyph-name="question-circle" unicode="&#59266;" d="M512 832C264.6 832 64 631.4 64 384s200.6-448 448-448 448 200.6 448 448S759.4 832 512 832z m0-820c-205.4 0-372 166.6-372 372s166.6 372 372 372 372-166.6 372-372-166.6-372-372-372zM623.6 579.3C593.6 605.6 554 620 512 620s-81.6-14.5-111.6-40.7C369.2 552 352 515.3 352 476v-7.6c0-4.4 3.6-8 8-8h48c4.4 0 8 3.6 8 8V476c0 44.1 43.1 80 96 80s96-35.9 96-80c0-31.1-22-59.6-56.1-72.7-21.2-8.1-39.2-22.3-52.1-40.9-13.1-19-19.9-41.8-19.9-64.9V276c0-4.4 3.6-8 8-8h48c4.4 0 8 3.6 8 8v22.7c0 19.7 12.4 37.7 30.9 44.8 59 22.7 97.1 74.7 97.1 132.5 0.1 39.3-17.1 76-48.3 103.3zM512 164m-40 0a40 40 0 1 1 80 0 40 40 0 1 1-80 0Z"  horiz-adv-x="1024" />

    
    <glyph glyph-name="dashboard" unicode="&#59275;" d="M924.8 510.4c-22.6 53.4-54.9 101.3-96 142.4-41.1 41.1-89 73.4-142.4 96C631.1 772.2 572.5 784 512 784s-119.1-11.8-174.4-35.2c-53.4-22.6-101.3-54.9-142.4-96-41.1-41.1-73.4-89-96-142.4C75.8 455.1 64 396.5 64 336c0-132.7 58.3-257.7 159.9-343.1l1.7-1.4c5.8-4.8 13.1-7.5 20.6-7.5h531.7c7.5 0 14.8 2.7 20.6 7.5l1.7 1.4C901.7 78.3 960 203.3 960 336c0 60.5-11.9 119.1-35.2 174.4zM761.4 60H262.6C184.5 130.5 140 230.4 140 336c0 99.4 38.7 192.8 109 263 70.3 70.3 163.7 109 263 109 99.4 0 192.8-38.7 263-109 70.3-70.3 109-163.7 109-263 0-105.6-44.5-205.5-122.6-276zM623.5 474.5c-3.1 3.1-8.2 3.1-11.3 0L527.7 390c-18.7 5-39.4 0.2-54.1-14.5-21.9-21.9-21.9-57.3 0-79.2 21.9-21.9 57.3-21.9 79.2 0 14.7 14.7 19.5 35.4 14.5 54.1l84.5 84.5c3.1 3.1 3.1 8.2 0 11.3l-28.3 28.3zM490 576h44c4.4 0 8 3.6 8 8v80c0 4.4-3.6 8-8 8h-44c-4.4 0-8-3.6-8-8v-80c0-4.4 3.6-8 8-8zM750 358v-44c0-4.4 3.6-8 8-8h80c4.4 0 8 3.6 8 8v44c0 4.4-3.6 8-8 8h-80c-4.4 0-8-3.6-8-8zM762.7 555.2l-31.1 31.1c-3.1 3.1-8.2 3.1-11.3 0l-56.6-56.6c-3.1-3.1-3.1-8.2 0-11.3l31.1-31.1c3.1-3.1 8.2-3.1 11.3 0l56.6 56.6c3.1 3.1 3.1 8.2 0 11.3zM304.1 586.3c-3.1 3.1-8.2 3.1-11.3 0l-31.1-31.1c-3.1-3.1-3.1-8.2 0-11.3l56.6-56.6c3.1-3.1 8.2-3.1 11.3 0l31.1 31.1c3.1 3.1 3.1 8.2 0 11.3l-56.6 56.6zM262 366h-80c-4.4 0-8-3.6-8-8v-44c0-4.4 3.6-8 8-8h80c4.4 0 8 3.6 8 8v44c0 4.4-3.6 8-8 8z"  horiz-adv-x="1024" />

    
    <glyph glyph-name="logout" unicode="&#59277;" d="M868 164h-70.3c-4.8 0-9.3-2.1-12.3-5.8-7-8.5-14.5-16.7-22.4-24.5-32.6-32.5-70.5-58.1-112.7-75.9-43.6-18.4-90-27.8-137.9-27.8-47.9 0-94.3 9.4-137.9 27.8-42.2 17.8-80.1 43.4-112.7 75.9-32.6 32.5-58.1 70.4-76 112.5C167.3 289.8 158 336.1 158 384s9.4 94.2 27.8 137.8c17.8 42.1 43.4 80 76 112.5s70.5 58.1 112.7 75.9c43.6 18.4 90 27.8 137.9 27.8 47.9 0 94.3-9.3 137.9-27.8 42.2-17.8 80.1-43.4 112.7-75.9 7.9-7.9 15.3-16.1 22.4-24.5 3-3.7 7.6-5.8 12.3-5.8H868c6.3 0 10.2 7 6.7 12.3C798 735.5 663.8 814.4 511.3 814 271.7 813.4 79.6 618.9 82 379.6 84.4 144.1 276.2-46 512.4-46c152.1 0 285.7 78.8 362.3 197.7 3.4 5.3-0.4 12.3-6.7 12.3zM956.9 390.3L815 502.3c-5.3 4.2-13 0.4-13-6.3v-76H488c-4.4 0-8-3.6-8-8v-56c0-4.4 3.6-8 8-8h314v-76c0-6.7 7.8-10.5 13-6.3l141.9 112c4.1 3.2 4.1 9.4 0 12.6z"  horiz-adv-x="1024" />

    
    <glyph glyph-name="setting" unicode="&#59278;" d="M924.8 270.3l-65.5 56c3.1 19 4.7 38.4 4.7 57.8s-1.6 38.8-4.7 57.8l65.5 56c10.1 8.6 13.8 22.6 9.3 35.2l-0.9 2.6c-18.1 50.5-44.9 96.9-79.7 137.9l-1.8 2.1c-8.6 10.1-22.5 13.9-35.1 9.5l-81.3-28.9c-30 24.6-63.5 44-99.7 57.6l-15.7 85c-2.4 13.1-12.7 23.3-25.8 25.7l-2.7 0.5c-52.1 9.4-106.9 9.4-159 0l-2.7-0.5c-13.1-2.4-23.4-12.6-25.8-25.7l-15.8-85.4c-35.9-13.6-69.2-32.9-99-57.4l-81.9 29.1c-12.5 4.4-26.5 0.7-35.1-9.5l-1.8-2.1c-34.8-41.1-61.6-87.5-79.7-137.9l-0.9-2.6c-4.5-12.5-0.8-26.5 9.3-35.2l66.3-56.6c-3.1-18.8-4.6-38-4.6-57.1 0-19.2 1.5-38.4 4.6-57.1L99 270.5c-10.1-8.6-13.8-22.6-9.3-35.2l0.9-2.6c18.1-50.4 44.9-96.9 79.7-137.9l1.8-2.1c8.6-10.1 22.5-13.9 35.1-9.5l81.9 29.1c29.8-24.5 63.1-43.9 99-57.4l15.8-85.4c2.4-13.1 12.7-23.3 25.8-25.7l2.7-0.5c26.1-4.7 52.8-7.1 79.5-7.1 26.7 0 53.5 2.4 79.5 7.1l2.7 0.5c13.1 2.4 23.4 12.6 25.8 25.7l15.7 85c36.2 13.6 69.7 32.9 99.7 57.6l81.3-28.9c12.5-4.4 26.5-0.7 35.1 9.5l1.8 2.1c34.8 41.1 61.6 87.5 79.7 137.9l0.9 2.6c4.5 12.3 0.8 26.3-9.3 35zM788.3 430.1c2.5-15.1 3.8-30.6 3.8-46.1s-1.3-31-3.8-46.1l-6.6-40.1 74.7-63.9c-11.3-26.1-25.6-50.7-42.6-73.6L721 193.2l-31.4-25.8c-23.9-19.6-50.5-35-79.3-45.8l-38.1-14.3-17.9-97c-28.1-3.2-56.8-3.2-85 0l-17.9 97.2-37.8 14.5c-28.5 10.8-55 26.2-78.7 45.7l-31.4 25.9-93.4-33.2c-17 22.9-31.2 47.6-42.6 73.6l75.5 64.5-6.5 40c-2.4 14.9-3.7 30.3-3.7 45.5 0 15.3 1.2 30.6 3.7 45.5l6.5 40-75.5 64.5c11.3 26.1 25.6 50.7 42.6 73.6l93.4-33.2 31.4 25.9c23.7 19.5 50.2 34.9 78.7 45.7l37.9 14.3 17.9 97.2c28.1 3.2 56.8 3.2 85 0l17.9-97 38.1-14.3c28.7-10.8 55.4-26.2 79.3-45.8l31.4-25.8 92.8 32.9c17-22.9 31.2-47.6 42.6-73.6L781.8 470l6.5-39.9zM512 570c-97.2 0-176-78.8-176-176s78.8-176 176-176 176 78.8 176 176-78.8 176-176 176z m79.2-255.2C570 293.7 541.9 282 512 282c-29.9 0-58 11.7-79.2 32.8C411.7 336 400 364.1 400 394c0 29.9 11.7 58 32.8 79.2C454 494.4 482.1 506 512 506c29.9 0 58-11.6 79.2-32.8C612.3 452 624 423.9 624 394c0-29.9-11.7-58-32.8-79.2z"  horiz-adv-x="1024" />

    
    <glyph glyph-name="detail" unicode="&#59283;" d="M880 784H144c-17.7 0-32-14.3-32-32v-736c0-17.7 14.3-32 32-32h736c17.7 0 32 14.3 32 32V752c0 17.7-14.3 32-32 32z m-40-728H184V712h656v-656zM492 496h184c4.4 0 8 3.6 8 8v48c0 4.4-3.6 8-8 8H492c-4.4 0-8-3.6-8-8v-48c0-4.4 3.6-8 8-8zM492 352h184c4.4 0 8 3.6 8 8v48c0 4.4-3.6 8-8 8H492c-4.4 0-8-3.6-8-8v-48c0-4.4 3.6-8 8-8zM492 208h184c4.4 0 8 3.6 8 8v48c0 4.4-3.6 8-8 8H492c-4.4 0-8-3.6-8-8v-48c0-4.4 3.6-8 8-8zM380 528m-40 0a40 40 0 1 1 80 0 40 40 0 1 1-80 0ZM380 384m-40 0a40 40 0 1 1 80 0 40 40 0 1 1-80 0ZM380 240m-40 0a40 40 0 1 1 80 0 40 40 0 1 1-80 0Z"  horiz-adv-x="1024" />

    
    <glyph glyph-name="user" unicode="&#59310;" d="M858.5 132.4c-18.9 44.8-46.1 85-80.6 119.5-34.5 34.5-74.7 61.6-119.5 80.6-0.4 0.2-0.8 0.3-1.2 0.5C719.5 378 760 451.3 760 534c0 137-111 248-248 248S264 671 264 534c0-82.7 40.5-156 102.8-201.1-0.4-0.2-0.8-0.3-1.2-0.5-44.8-18.9-85-46-119.5-80.6-34.5-34.5-61.6-74.7-80.6-119.5C146.9 88.5 137 42 136-5.8c-0.1-4.5 3.5-8.2 8-8.2h60c4.4 0 7.9 3.5 8 7.8 2 77.2 33 149.5 87.8 204.3 56.7 56.7 132 87.9 212.2 87.9s155.5-31.2 212.2-87.9C779 143.3 810 71 812-6.2c0.1-4.4 3.6-7.8 8-7.8h60c4.5 0 8.1 3.7 8 8.2-1 47.8-10.9 94.3-29.5 138.2zM512 362c-45.9 0-89.1 17.9-121.6 50.4S340 488.1 340 534c0 45.9 17.9 89.1 50.4 121.6S466.1 706 512 706s89.1-17.9 121.6-50.4S684 579.9 684 534c0-45.9-17.9-89.1-50.4-121.6S557.9 362 512 362z"  horiz-adv-x="1024" />

    
    <glyph glyph-name="home" unicode="&#59334;" d="M946.5 391L560.1 777.2l-25.9 25.9c-12.3 12.2-32.1 12.2-44.4 0L77.5 391c-12.3-12.3-18.9-28.6-18.8-46 0.4-35.2 29.7-63.3 64.9-63.3h42.5V-44h691.8V281.7h43.4c17.1 0 33.2 6.7 45.3 18.8 12.1 12.1 18.7 28.2 18.7 45.3 0 17-6.7 33.1-18.8 45.2zM568 28H456V232h112v-204z m217.9 325.7V28H632V256c0 22.1-17.9 40-40 40H432c-22.1 0-40-17.9-40-40v-228H238.1V353.7h-96l370 369.7 23.1-23.1L882 353.7h-96.1z"  horiz-adv-x="1024" />

    
    <glyph glyph-name="lock" unicode="&#59337;" d="M832 432h-68V656c0 70.7-57.3 128-128 128H388c-70.7 0-128-57.3-128-128v-224h-68c-17.7 0-32-14.3-32-32v-384c0-17.7 14.3-32 32-32h640c17.7 0 32 14.3 32 32V400c0 17.7-14.3 32-32 32zM332 656c0 30.9 25.1 56 56 56h248c30.9 0 56-25.1 56-56v-224H332V656z m460-600H232V360h560v-304zM484 195v-53c0-4.4 3.6-8 8-8h40c4.4 0 8 3.6 8 8v53c12.1 8.7 20 22.9 20 39 0 26.5-21.5 48-48 48s-48-21.5-48-48c0-16.1 7.9-30.3 20-39z"  horiz-adv-x="1024" />

    
    <glyph glyph-name="table" unicode="&#59358;" d="M928 736H96c-17.7 0-32-14.3-32-32v-640c0-17.7 14.3-32 32-32h832c17.7 0 32 14.3 32 32V704c0 17.7-14.3 32-32 32z m-40-208H676V664h212v-136z m0-224H676V464h212v-160zM412 464h200v-160H412V464z m200 64H412V664h200v-136z m-476-64h212v-160H136V464z m0 200h212v-136H136V664z m0-424h212v-136H136V240z m276 0h200v-136H412V240z m476-136H676V240h212v-136z"  horiz-adv-x="1024" />

    
    <glyph glyph-name="right" unicode="&#59373;" d="M765.7 409.2L314.9 761.3c-5.3 4.1-12.9 0.4-12.9-6.3v-77.3c0-4.9 2.3-9.6 6.1-12.6l360-281.1-360-281.1c-3.9-3-6.1-7.7-6.1-12.6V13c0-6.7 7.7-10.4 12.9-6.3l450.8 352.1c16.4 12.8 16.4 37.6 0 50.4z"  horiz-adv-x="1024" />

    
    <glyph glyph-name="left" unicode="&#59374;" d="M724 677.7V755c0 6.7-7.7 10.4-12.9 6.3L260.3 409.2c-16.4-12.8-16.4-37.5 0-50.3l450.8-352.1c5.3-4.1 12.9-0.4 12.9 6.3v77.3c0 4.9-2.3 9.6-6.1 12.6l-360 281 360 281.1c3.8 3 6.1 7.7 6.1 12.6z"  horiz-adv-x="1024" />

    
    <glyph glyph-name="up" unicode="&#59371;" d="M890.5 140.7L537.9 626.8c-12.8 17.6-39 17.6-51.7 0L133.5 140.7c-3.8-5.3-0.1-12.7 6.5-12.7h75c5.1 0 9.9 2.5 12.9 6.6L512 526.2l284.1-391.6c3-4.1 7.8-6.6 12.9-6.6h75c6.5 0 10.3 7.4 6.5 12.7z"  horiz-adv-x="1024" />

    
    <glyph glyph-name="down" unicode="&#59372;" d="M884 640h-75c-5.1 0-9.9-2.5-12.9-6.6L512 241.8 227.9 633.4c-3 4.1-7.8 6.6-12.9 6.6h-75c-6.5 0-10.3-7.4-6.5-12.7l352.6-486.1c12.8-17.6 39-17.6 51.7 0l352.6 486.1c3.9 5.3 0.1 12.7-6.4 12.7z"  horiz-adv-x="1024" />

    
    <glyph glyph-name="upload" unicode="&#59375;" d="M400 578.3h73.9V240c0-4.4 3.6-8 8-8h60c4.4 0 8 3.6 8 8V578.3H624c6.7 0 10.4 7.7 6.3 12.9L518.3 733c-3.2 4.1-9.4 4.1-12.6 0l-112-141.7c-4.1-5.3-0.4-13 6.3-13zM878 270h-60c-4.4 0-8-3.6-8-8v-154H214V262c0 4.4-3.6 8-8 8h-60c-4.4 0-8-3.6-8-8v-198c0-17.7 14.3-32 32-32h684c17.7 0 32 14.3 32 32V262c0 4.4-3.6 8-8 8z"  horiz-adv-x="1024" />

    
    <glyph glyph-name="menu" unicode="&#59380;" d="M904 736H120c-4.4 0-8-3.6-8-8v-64c0-4.4 3.6-8 8-8h784c4.4 0 8 3.6 8 8v64c0 4.4-3.6 8-8 8zM904 112H120c-4.4 0-8-3.6-8-8v-64c0-4.4 3.6-8 8-8h784c4.4 0 8 3.6 8 8v64c0 4.4-3.6 8-8 8zM904 424H120c-4.4 0-8-3.6-8-8v-64c0-4.4 3.6-8 8-8h784c4.4 0 8 3.6 8 8v64c0 4.4-3.6 8-8 8z"  horiz-adv-x="1024" />

    
    <glyph glyph-name="dingtalk" unicode="&#59521;" d="M573.7 643.5C422.5 698.6 201.3 799.3 201.3 799.3c-15.7 4.1-17.9-11.1-17.9-11.1-5-61.1 33.6-160.5 53.6-182.8 19.9-22.3 319.1-113.7 319.1-113.7S326 538.1 270.5 554.1c-55.6 16-37.9-17.8-37.9-17.8 11.4-61.7 64.9-131.8 107.2-138.4 42.2-6.6 220.1-4 220.1-4s-35.5-4.1-93.2-11.9c-42.7-5.8-97-12.5-111.1-17.8-33.1-12.5 24-62.6 24-62.6 84.7-76.8 129.7-50.5 129.7-50.5 33.3 10.7 61.4 18.5 85.2 24.2L565 152.9h84.6L603-32l205.3 271.9H700.8l22.3 38.7c0.3-0.5 0.4-0.8 0.4-0.8S799.8 399.9 829 462.2l0.6 1h-0.1c5 10.8 8.6 19.7 10 25.8 17 71.3-114.5 99.4-265.8 154.5z"  horiz-adv-x="1024" />

    
    <glyph glyph-name="wechat-fill" unicode="&#59523;" d="M690.1 518.6c5.9 0 11.8-0.2 17.6-0.5-24.4 128.7-158.3 227.1-319.9 227.1C209 745.2 64 624.6 64 475.8c0-81.1 43.6-154.2 111.9-203.6 5.5-3.9 9.1-10.3 9.1-17.6 0-2.4-0.5-4.6-1.1-6.9-5.5-20.3-14.2-52.8-14.6-54.3-0.7-2.6-1.7-5.2-1.7-7.9 0-5.9 4.8-10.8 10.8-10.8 2.3 0 4.2 0.9 6.2 2l70.9 40.9c5.3 3.1 11 5 17.2 5 3.2 0 6.4-0.5 9.5-1.4 33.1-9.5 68.8-14.8 105.7-14.8 6 0 11.9 0.1 17.8 0.4-7.1 21-10.9 43.1-10.9 66 0 135.8 132.2 245.8 295.3 245.8z m-194.3 86.5c23.8 0 43.2-19.3 43.2-43.1s-19.3-43.1-43.2-43.1c-23.8 0-43.2 19.3-43.2 43.1s19.4 43.1 43.2 43.1z m-215.9-86.2c-23.8 0-43.2 19.3-43.2 43.1s19.3 43.1 43.2 43.1 43.2-19.3 43.2-43.1-19.4-43.1-43.2-43.1zM866.7 103.3c56.9 41.2 93.2 102 93.2 169.7 0 124-120.8 224.5-269.9 224.5-149 0-269.9-100.5-269.9-224.5S540.9 48.5 690 48.5c30.8 0 60.6 4.4 88.1 12.3 2.6 0.8 5.2 1.2 7.9 1.2 5.2 0 9.9-1.6 14.3-4.1l59.1-34c1.7-1 3.3-1.7 5.2-1.7 2.4 0 4.7 0.9 6.4 2.6 1.7 1.7 2.6 4 2.6 6.4 0 2.2-0.9 4.4-1.4 6.6-0.3 1.2-7.6 28.3-12.2 45.3-0.5 1.9-0.9 3.8-0.9 5.7 0.1 5.9 3.1 11.2 7.6 14.5zM600.2 308.8c-19.9 0-36 16.1-36 35.9 0 19.8 16.1 35.9 36 35.9s36-16.1 36-35.9c0-19.8-16.2-35.9-36-35.9z m179.9 0c-19.9 0-36 16.1-36 35.9 0 19.8 16.1 35.9 36 35.9s36-16.1 36-35.9c-0.1-19.8-16.2-35.9-36-35.9z"  horiz-adv-x="1024" />

    
    <glyph glyph-name="github-fill" unicode="&#59525;" d="M511.6 819.7C264.3 819.8 64 619.6 64 372.5 64 177.1 189.3 11 363.8-50c23.5-5.9 19.9 10.8 19.9 22.2v77.5c-135.7-15.9-141.2 73.9-150.3 88.9C215 170 171.5 178 184.5 193c30.9 15.9 62.4-4 98.9-57.9 26.4-39.1 77.9-32.5 104-26 5.7 23.5 17.9 44.5 34.7 60.8-140.6 25.2-199.2 111-199.2 213 0 49.5 16.3 95 48.3 131.7-20.4 60.5 1.9 112.3 4.9 120 58.1 5.2 118.5-41.6 123.2-45.3 33 8.9 70.7 13.6 112.9 13.6 42.4 0 80.2-4.9 113.5-13.9 11.3 8.6 67.3 48.8 121.3 43.9 2.9-7.7 24.7-58.3 5.5-118 32.4-36.8 48.9-82.7 48.9-132.3 0-102.2-59-188.1-200-212.9 23.5-23.2 38.1-55.4 38.1-91v-112.5c0.8-9 0-17.9 15-17.9 177.1 59.7 304.6 227 304.6 424.1 0 247.2-200.4 447.3-447.5 447.3z"  horiz-adv-x="1024" />

    
    <glyph glyph-name="dingtalk-circle-fill" unicode="&#59528;" d="M512 832C264.6 832 64 631.4 64 384s200.6-448 448-448 448 200.6 448 448S759.4 832 512 832z m227-385.3c-1-4.2-3.5-10.4-7-17.8h0.1l-0.4-0.7c-20.3-43.1-73.1-127.7-73.1-127.7s-0.1 0.2-0.3 0.5l-15.5-26.8h74.5L575.1 86l32.3 128h-58.6l20.4 84.7c-16.5-3.9-35.9-9.4-59-16.8 0 0-31.2-18.2-89.9 35 0 0-39.6 34.7-16.6 43.4 9.8 3.7 47.4 8.4 77 12.3 40 5.4 64.6 8.2 64.6 8.2S422 379 392.7 383.5c-29.3 4.6-66.4 53.1-74.3 95.8 0 0-12.2 23.4 26.3 12.3 38.5-11.1 197.9-43.2 197.9-43.2s-207.4 63.3-221.2 78.7c-13.8 15.4-40.6 84.2-37.1 126.5 0 0 1.5 10.5 12.4 7.7 0 0 153.3-69.7 258.1-107.9 104.8-37.9 195.9-57.3 184.2-106.7z"  horiz-adv-x="1024" />

    
    <glyph glyph-name="html5" unicode="&#58882;" d="M755.428571 554.857143l9.142858 100H259.428571l26.857143-305.142857h349.714286l-12.571429-130.285715-112.571428-30.285714-112 30.285714-7.428572 80H291.428571l12.571429-158.857142 206.857143-57.142858h2.285714v0.571429l205.142857 56.571429 28.571429 310.857142H378.857143l-8.571429 103.428572h385.142857zM109.714286 822.857143h804.571428l-73.142857-821.714286-330.285714-92.571428-328 92.571428z"  horiz-adv-x="1024" />

    
    <glyph glyph-name="Nodejs" unicode="&#59291;" d="M506.9 109.6c-3 0-5.9 0.8-8.5 2.3l-27 16c-4 2.3-2.1 3.1-0.7 3.5 5.4 1.9 6.5 2.3 12.2 5.6 0.6 0.3 1.4 0.2 2-0.1l20.8-12.3c0.7-0.4 1.8-0.4 2.5 0l80.9 46.7c0.7 0.4 1.2 1.3 1.2 2.2v93.4c0 0.9-0.5 1.8-1.3 2.2l-80.9 46.7c-0.7 0.4-1.7 0.4-2.5 0L424.8 269c-0.8-0.4-1.3-1.3-1.3-2.2v-93.4c0-0.9 0.5-1.7 1.3-2.2l22.2-12.8c12-6 19.4 1.1 19.4 8.2v92.2c0 1.3 1 2.3 2.3 2.3h10.2c1.3 0 2.3-1 2.3-2.3v-92.2c0-16-8.7-25.3-24-25.3-4.7 0-8.4 0-18.7 5.1l-21.2 12.2c-5.2 3-8.5 8.7-8.5 14.8v93.4c0 6.1 3.2 11.7 8.5 14.7l81 46.7c5.1 2.9 11.9 2.9 17 0l80.9-46.7c5.2-3 8.5-8.7 8.5-14.7v-93.4c0-6.1-3.3-11.7-8.5-14.7L515.3 112c-2.5-1.6-5.5-2.3-8.4-2.4M531.9 174c-35.4 0-42.8 16.3-42.8 29.9 0 1.3 1 2.3 2.3 2.3h10.5c1.2 0 2.1-0.8 2.3-2 1.6-10.6 6.3-16 27.7-16 17.1 0 24.3 3.9 24.3 12.9 0 5.2-2.1 9.1-28.6 11.7-22.2 2.2-35.9 7.1-35.9 24.8 0 16.3 13.8 26 36.8 26 25.9 0 38.7-9 40.4-28.3 0.1-0.7-0.2-1.3-0.6-1.8-0.4-0.5-1.1-0.7-1.7-0.7h-10.5c-1.1 0-2 0.8-2.3 1.8-2.5 11.2-8.6 14.8-25.3 14.8-18.6 0-20.8-6.5-20.8-11.3 0-5.9 2.6-7.6 27.7-10.9 24.9-3.3 36.7-8 36.7-25.4 0-17.6-14.7-27.7-40.3-27.7m98.5 98.8h2.7c2.2 0 2.7 1.6 2.7 2.5 0 2.4-1.6 2.4-2.6 2.4h-2.8v-4.9z m-3.3 7.6h6c2.1 0 6.1 0 6.1-4.6 0-3.2-2.1-3.9-3.3-4.3 2.4-0.2 2.6-1.7 2.9-4 0.2-1.4 0.4-3.8 0.9-4.6h-3.7c-0.1 0.8-0.7 5.3-0.7 5.5-0.2 1-0.6 1.5-1.8 1.5h-3.1v-7H627v17.5z m-7.2-8.7c0-7.3 5.9-13.1 13-13.1 7.3 0 13.1 6 13.1 13.1 0 7.3-5.9 13-13.1 13-7.1 0.1-13.1-5.6-13-13m28.6 0c0-8.6-7-15.6-15.6-15.6-8.5 0-15.6 6.9-15.6 15.6 0 8.8 7.3 15.6 15.6 15.6 8.4 0 15.6-6.8 15.6-15.6M256.3 475c0 3.7-2 7.1-5.2 9l-85.8 49.4c-1.4 0.9-3.1 1.3-4.7 1.4h-0.9c-1.6-0.1-3.3-0.5-4.7-1.4L69.2 484c-3.2-1.9-5.2-5.3-5.2-9l0.2-133c0-1.8 1-3.6 2.6-4.5 1.6-1 3.6-1 5.1 0l51 29.2c3.2 1.9 5.2 5.3 5.2 9v62.1c0 3.7 2 7.1 5.2 9l21.7 12.5c1.6 0.9 3.4 1.4 5.2 1.4 1.8 0 3.6-0.5 5.2-1.4l21.7-12.5c3.2-1.8 5.2-5.3 5.2-9v-62.1c0-3.7 2-7.1 5.2-9l51-29.2c1.6-1 3.6-1 5.2 0 1.6 0.9 2.6 2.6 2.6 4.5V475z m404.8-69.2c0-0.9-0.5-1.8-1.3-2.2l-29.5-17c-0.8-0.5-1.8-0.5-2.6 0l-29.5 17c-0.8 0.5-1.3 1.3-1.3 2.2v34c0 0.9 0.5 1.8 1.3 2.2l29.5 17c0.8 0.5 1.8 0.5 2.6 0l29.5-17c0.8-0.5 1.3-1.3 1.3-2.2v-34z m8 251.9c-1.6 0.9-3.6 0.9-5.2-0.1-1.6-0.9-2.6-2.6-2.6-4.5v-131.7c0-1.3-0.7-2.5-1.8-3.1-1.1-0.6-2.5-0.6-3.6 0l-21.5 12.4c-3.2 1.9-7.1 1.9-10.4 0l-85.8-49.5c-3.2-1.8-5.2-5.3-5.2-9v-99.1c0-3.7 2-7.1 5.2-9l85.8-49.6c3.2-1.8 7.1-1.8 10.4 0l85.8 49.6c3.2 1.9 5.2 5.3 5.2 9V620.2c0 3.8-2 7.2-5.3 9.1l-51 28.4z m285.7-217c3.2 1.9 5.2 5.3 5.2 9v24c0 3.7-2 7.1-5.2 9l-85.3 49.5a10.2 10.2 0 0 1-10.4 0l-85.8-49.5c-3.2-1.9-5.2-5.3-5.2-9v-99c0-3.7 2-7.2 5.2-9l85.3-48.6c3.1-1.8 7-1.8 10.2-0.1l51.6 28.7c1.6 0.9 2.7 2.6 2.7 4.5s-1 3.6-2.6 4.5l-86.3 49.5c-1.6 0.9-2.6 2.6-2.6 4.5v31.1c0 1.9 1 3.6 2.6 4.5l26.9 15.5c1.6 0.9 3.6 0.9 5.2 0l26.9-15.5c1.6-0.9 2.6-2.6 2.6-4.5v-24.4c0-1.8 1-3.6 2.6-4.5 1.6-0.9 3.6-0.9 5.2 0l51.2 29.8zM863.1 445.3c0.6 0.4 1.4 0.4 2 0l16.5-9.5c0.6-0.4 1-1 1-1.7v-19c0-0.7-0.4-1.4-1-1.7l-16.5-9.5c-0.6-0.4-1.4-0.4-2 0l-16.5 9.5c-0.6 0.4-1 1-1 1.7v19c0 0.7 0.4 1.4 1 1.7l16.5 9.5zM487.5 480.4l-0.2 0.2c-0.1 0.1-0.2 0.2-0.4 0.3-0.2 0.2-0.5 0.4-0.7 0.6-0.1 0.1-0.1 0.1-0.2 0.1l-0.9 0.6-55.9 32.3-8.9 5.1-20.6 11.9c-0.9 0.5-1.8 0.8-2.7 1.1-0.8 0.2-1.6 0.3-2.4 0.3H393.6h-0.1c-0.2 0-0.4-0.1-0.6-0.1-0.2 0-0.4-0.1-0.5-0.1-0.2-0.1-0.5-0.1-0.7-0.2-0.1 0-0.3-0.1-0.4-0.1-0.3-0.1-0.5-0.2-0.7-0.3h-0.1c-0.3-0.1-0.6-0.3-0.9-0.5l-65.8-38-19.3-11.1-0.2-0.1c-3.2-1.8-5.2-5.2-5.2-8.9v-98.6c0-2.3 0.8-4.5 2.1-6.3 0.2-0.3 0.5-0.6 0.8-0.9l0.2-0.2c0.2-0.2 0.5-0.4 0.7-0.7l0.2-0.2c0.3-0.3 0.7-0.5 1.1-0.7l74.4-43 11-6.3c0.9-0.5 1.8-0.9 2.8-1.1 0.2 0 0.4-0.1 0.5-0.1 0.3 0 0.5-0.1 0.8-0.1 0.3 0 0.5 0 0.8-0.1h0.3c0.4 0 0.7 0 1.1 0.1h0.4c0.3 0 0.6 0.1 0.9 0.2 0.1 0 0.2 0 0.3 0.1h0.2l0.9 0.3c0.1 0 0.1 0 0.2 0.1l1.2 0.6 85.3 49.3c2.6 1.5 4.4 4.2 5 7.1 0.1 0.6 0.2 1.2 0.2 1.8v98.6c-0.2 2.7-1.2 5.2-3 7z"  horiz-adv-x="1024" />

    
    <glyph glyph-name="mysql" unicode="&#58883;" d="M1021.680771 790.731939c-7.167594 0-12.031318-0.853285-17.065699-2.047884v-0.810621h0.853285c3.41314-6.484966 9.130149-11.220697 13.35391-17.023036 3.370476-6.655623 6.22898-13.311246 9.599456-19.924204l0.853285 0.938614c5.845002 4.095768 8.703507 10.708727 8.703507 20.734825-2.474526 2.943833-2.858505 5.845002-4.949053 8.746171-2.517191 4.181096-7.850222 6.22898-11.220698 9.514127l-0.127993-0.127992zM359.36097-31.152155H301.636241c-1.663906 91.728135-7.252922 183.456271-16.852379 274.7151h-0.469306l-87.845689-274.757764H152.567355l-87.163061 274.757764h-0.639964c-6.82628-91.429486-10.879384-183.029628-12.116647-274.757764H0c3.41314 122.489059 11.94599 237.383882 25.555885 344.513811h71.59061l83.152621-253.169654h0.511971l83.877914 253.169654h68.17747c15.103144-125.518221 23.891979-240.455708 26.665156-344.471147h-0.170657z m250.140492 254.150932c-23.508001-127.395448-54.52491-220.104861-92.880071-277.82959-30.035631-44.58414-62.929767-66.854878-98.597079-66.854878-9.556792 0-21.204132 2.858505-35.24067 8.618178v30.760924c6.82628-1.066606 14.932487-1.621241 24.019972-1.621242 16.681721 0 30.078296 4.693067 40.275052 13.823217 12.287304 11.220697 18.388291 23.806651 18.388291 37.672532 0 9.684785-4.778396 29.310339-14.335188 58.833999l-63.143088 196.59686h56.658122l45.309433-147.021002c10.23942-33.363443 14.505845-56.700787 12.75661-69.969369 24.915921 66.300243 42.237607 138.744138 52.00772 216.990371h54.780896z m767.615168-254.150932h-163.830716v344.471147h55.164874v-302.105547h108.665842v-42.3656z m-206.793615-8.404857l-63.271081 31.144902c5.631681 4.693067 11.05004 9.812777 15.8711 15.572451 27.00647 31.486216 40.36038 78.331561 40.36038 140.365379 0 113.956209-44.712133 171.040974-134.179063 171.040975-43.858848 0-78.075576-14.505845-102.778176-43.432206-26.793148-31.656873-40.232387-78.246233-40.232387-139.853408 0-60.583234 11.817997-105.039381 35.752641-133.325778 21.758767-25.513221 54.610239-38.312496 98.554415-38.312496 16.4684 0 31.571544 2.090548 45.18144 6.143652l82.512657-48.125273 22.441395 38.781802h-0.213321z m-205.001717 77.350284c-14.036538 22.441395-20.990811 58.578014-20.99081 108.153871 0 86.779083 26.40917 130.168624 79.099518 130.168624 27.603769 0 47.954616-10.367413 60.839219-31.144902 13.951209-22.526723 20.905482-58.279364 20.905482-107.300586 0-87.461711-26.366506-131.320559-79.056854-131.320559-27.731762 0-47.954616 10.367413-60.924547 31.144902l0.127992 0.29865z m-103.247482 26.451834c0-29.267675-10.708727-53.330311-32.168844-71.974588-21.417453-18.686941-50.0025-28.030412-86.181783-28.030412-33.790085 0-66.257579 10.666062-97.957116 32.083516l14.76183 29.651653c27.305119-13.737888 51.879727-20.47884 74.107801-20.47884 20.692161 0 36.94724 4.565075 48.765237 13.737888a46.930674 46.930674 0 0 1 18.686941 38.312496c0 20.564168-14.335188 37.971182-40.36038 52.647683-24.147965 13.225917-72.443895 40.915015-72.443895 40.915015-26.281177 19.113584-39.336438 39.635087-39.336437 73.29718 0 28.030412 9.770113 50.471807 29.267674 67.622835 19.625555 17.279021 44.840126 25.854535 75.942364 25.854535 31.912858 0 61.05254-8.490186 87.205725-25.555886l-13.225917-29.651653a169.803711 169.803711 0 0 1-66.300243 14.335188c-17.620335 0-31.23023-4.266425-40.701694-12.841939a42.664249 42.664249 0 0 1-15.444458-32.63815c0-20.47884 14.548509-37.971182 41.46965-52.946333 24.446615-13.396574 73.894479-41.7683 73.894479-41.7683 27.00647-18.985591 40.403044-39.251109 40.403044-72.742545l-0.426642 0.213321zM1445.208772 429.792392c-33.107457 0.853285-58.791335-2.517191-80.294117-11.775333-6.186316-2.474526-16.084422-2.474526-16.937707-10.410077 3.41314-3.327811 3.882447-8.746171 6.82628-13.396574 4.906389-8.362193 13.481903-19.540226 21.374789-25.427892 8.703507-6.868944 17.364349-13.481903 26.451834-19.369569 16.084422-9.983434 34.34472-15.913765 50.130493-26.025192 8.959492-5.845002 18.132306-13.268581 27.262455-19.540226 4.479746-3.11449 7.423579-8.746171 13.225917-10.751391v1.279927c-2.858505 3.754454-3.71179 9.172814-6.484966 13.35391-4.181096 4.181096-8.319529 7.93555-12.372632 12.073983a200.436642 200.436642 0 0 1-43.048227 42.152278c-13.225917 9.130149-42.237607 21.88676-47.655967 37.203225l-0.81062 0.853285c9.044821 0.853285 19.796212 4.138432 28.499718 6.655623 14.036538 3.754454 26.878477 2.943833 41.46965 6.612958 6.52763 1.70657 13.183253 3.754454 19.796212 5.887667v3.754454c-7.423579 7.466244-13.012596 17.662999-20.692161 24.659936a548.662242 548.662242 0 0 1-68.305463 51.41042c-13.012596 8.404857-29.480996 13.780552-43.17622 20.905482-4.949053 2.474526-13.225917 3.754454-16.084422 7.93555-7.423579 9.130149-11.775333 21.246796-17.023035 32.12618a1107.734562 1107.734562 0 0 0-33.875414 72.657216c-7.423579 16.383072-11.94599 32.680815-21.033475 47.655966-42.664249 71.078639-88.954959 114.126866-160.076262 156.23648-15.273801 8.746171-33.619428 12.500625-52.988997 17.151028-10.324748 0.469307-20.649497 1.237263-30.931581 1.70657-6.82628 2.901169-13.396574 10.836719-19.198912 14.633837-23.508001 15.017816-84.432549 47.485309-101.754234 4.522411-11.135369-27.134462 16.511064-53.884947 26.110521-67.622835 7.12493-9.556792 16.084422-20.47884 21.033474-31.23023 2.901169-7.252922 3.71179-14.719166 6.612959-22.270738 6.570294-18.345627 12.799275-38.824467 21.502782-56.060824 4.52241-8.746171 9.471463-17.918985 15.273801-25.81187 3.370476-4.52241 9.044821-6.655623 10.367412-14.164531-5.845002-8.53285-6.186316-20.905482-9.556792-31.23023-14.847159-47.314652-9.044821-105.807338 12.031319-140.621365 6.612959-10.367413 22.398731-33.363443 43.517534-24.574607 18.558948 7.508908 14.505845 31.272895 19.796211 52.22104 1.237263 4.991717 0.426642 8.276864 2.986498 11.64734v-0.938613c5.802338-11.732668 11.604676-22.910702 16.937706-34.64337 12.75661-20.47884 35.027348-41.7683 53.671626-55.932831 9.898106-7.508908 17.748328-20.47884 30.163624-25.171907v1.279928h-0.938614c-2.687848 3.626461-6.186316 5.375695-9.556791 8.319528a214.430516 214.430516 0 0 0-21.630775 25.00125 548.619578 548.619578 0 0 0-46.248046 76.11302c-6.82628 13.097924-12.500625 27.219791-17.961648 40.189723-2.474526 4.991717-2.474526 12.457961-6.612959 14.975151-6.186316-9.130149-15.316465-17.0657-19.838876-28.286397-7.850222-18.004313-8.660843-40.104394-11.604676-63.143088-1.70657-0.426642-0.853285 0-1.70657-0.853285-13.225917 3.242483-17.748328 17.108364-22.69738 28.755704-12.372632 29.651653-14.420516 77.350283-3.71179 111.524347 2.901169 8.746171 15.273801 36.34994 10.324749 44.754797-2.559855 7.93555-10.751391 12.500625-15.273802 18.942926a155.425859 155.425859 0 0 0-14.847158 26.665156c-9.898106 23.380008-14.847159 49.234543-25.59855 72.614552-4.991717 10.794055-13.65256 22.100081-20.69216 32.040851-7.892886 11.263362-16.553729 19.198912-22.782709 32.510158-2.047884 4.565075-4.991717 12.116647-1.70657 17.108364 0.853285 3.41314 2.602519 4.693067 5.845002 5.63168 5.461024 4.479746 20.734825-1.365256 26.11052-3.839782 15.273801-6.271645 28.158404-12.159311 40.957679-20.905482 5.845002-4.138432 12.116647-12.073982 19.540226-14.079202h8.660843c13.225917-2.986497 28.158404-0.938613 40.531036-4.607739 21.972088-7.12493 41.810964-17.492342 59.559292-28.755704a370.624331 370.624331 0 0 0 129.059353-142.839906c4.949053-9.64212 7.12493-18.430956 11.64734-28.41439 8.660843-20.649497 19.369569-41.426986 28.158405-61.393854 8.660843-19.668219 17.023035-39.720416 29.438331-56.060823 6.22898-8.746171 31.102238-13.268581 42.237607-17.833656 8.2342-3.754454 21.033475-7.210258 28.457054-11.775333 14.249859-8.746171 28.11574-18.77227 41.46965-28.371726 6.82628-4.735732 27.433112-15.188473 28.670376-23.593329z"  horiz-adv-x="1493" />

    


  </font>
</defs>
</svg>
